<svg xmlns="http://www.w3.org/2000/svg" viewBox="0 0 411.56 67.7"><defs><style>.cls-1{fill:none;}.cls-2,.cls-3,.cls-9{fill:#cd1f5b;}.cls-3{font-size:31.37px;letter-spacing:0.14em;}.cls-3,.cls-9{font-family:HiraginoSans-W3-83pv-RKSJ-H, Hiragino Sans;}.cls-4{letter-spacing:0.18em;}.cls-5{letter-spacing:0.08em;}.cls-6{letter-spacing:0em;}.cls-7{letter-spacing:0.04em;}.cls-8{letter-spacing:0.16em;}.cls-9{font-size:18px;letter-spacing:0.25em;}</style></defs><g id="&#x30EC;&#x30A4;&#x30E4;&#x30FC;_2" data-name="&#x30EC;&#x30A4;&#x30E4;&#x30FC; 2"><g id="&#x30EC;&#x30A4;&#x30E4;&#x30FC;_1-2" data-name="&#x30EC;&#x30A4;&#x30E4;&#x30FC; 1"><text></text><g id="&#x516C;&#x5F0F;&#x30ED;&#x30B4;"><rect class="cls-1" width="411.11" height="41.9"></rect><path class="cls-2" d="M18.88,37C10.75,30.26,5.71,22.82,3.76,14.81c-.68-2.88-.68-4.77,0-6.66A7.81,7.81,0,0,1,9.4,3.09c3.8-1,8.33.12,11.81,3a27.32,27.32,0,0,1,3.2,3.33,17.72,17.72,0,0,0,1.91,2.15A10.57,10.57,0,0,0,27.78,10c3.91-4.85,7.39-7,11.86-7.22a9.32,9.32,0,0,1,7.57,2.62c2.39,2.47,2.78,6,1.18,11.26-2.18,7.17-7.24,14.23-14.52,20.28-2.69,2.19-2.78,2.13-.65-.49a66.88,66.88,0,0,0,8.88-13c1.73-3.53,2.29-5.73,2.13-8.56-.11-2.51-.58-3.73-2-5.24a5.59,5.59,0,0,0-4.33-2,4.26,4.26,0,0,0-2.78.46,55.52,55.52,0,0,0-7.06,5.15c-.36.45-.56.09,2.29,4.36a35.66,35.66,0,0,1,2.08,3.28,20.06,20.06,0,0,1-2.86-2.69,26.34,26.34,0,0,0-3.28-3.06,25,25,0,0,0-3.24,3c-1.65,1.64-3,2.93-3,2.89s1-1.69,2.34-3.64,2.33-3.64,2.33-3.75c0-.27-3.06-2.74-5.3-4.28-2-1.41-2.84-1.71-4.57-1.71a6.56,6.56,0,0,0-6.13,4.91,13.2,13.2,0,0,0,.36,7.62c1.44,4.35,5.15,10.15,10.7,16.82,1.42,1.74,1.77,2.18,1.57,2.15,0,0-1.16-.93-2.51-2.07Z"></path><text class="cls-3" transform="translate(59.28 32.52)">デンタ<tspan class="cls-4" x="107.19" y="0">ル</tspan><tspan class="cls-5" x="144.17" y="0">オ</tspan><tspan class="cls-6" x="178.02" y="0">フ</tspan><tspan class="cls-7" x="209.36" y="0">ィ</tspan><tspan class="cls-4" x="241.95" y="0">ス松</tspan><tspan class="cls-8" x="315.92" y="0">川</tspan></text><text class="cls-9" transform="translate(85.42 60.98)">和光インプラントセンター</text></g></g></g></svg>